<mxfile host="app.diagrams.net" agent="Mozilla/5.0 (Windows NT 10.0; Win64; x64; rv:144.0) Gecko/20100101 Firefox/144.0" version="28.2.8">
  <diagram name="ページ1" id="6O8cq4Rfigk1k-ii5kAo">
    <mxGraphModel dx="3074" dy="971" grid="1" gridSize="10" guides="1" tooltips="1" connect="1" arrows="1" fold="1" page="1" pageScale="1" pageWidth="827" pageHeight="1169" math="0" shadow="0">
      <root>
        <mxCell id="0" />
        <object label="ネットワーク" id="1">
          <mxCell style="locked=1;" parent="0" />
        </object>
        <mxCell id="4jGIObLVKQul48obEb4T-3" value="" style="endArrow=oval;html=1;rounded=0;startArrow=oval;startFill=1;endFill=1;strokeWidth=4;fillColor=#a20025;strokeColor=#1C6EFF;" parent="1" edge="1">
          <mxGeometry width="50" height="50" relative="1" as="geometry">
            <mxPoint x="-700" y="24.5" as="sourcePoint" />
            <mxPoint x="620" y="24.5" as="targetPoint" />
          </mxGeometry>
        </mxCell>
        <mxCell id="4jGIObLVKQul48obEb4T-4" value="192.168.122.0/24" style="text;html=1;align=center;verticalAlign=middle;resizable=0;points=[];autosize=1;strokeColor=none;fillColor=none;" parent="1" vertex="1">
          <mxGeometry x="-821" y="10" width="120" height="30" as="geometry" />
        </mxCell>
        <mxCell id="4jGIObLVKQul48obEb4T-7" value="" style="endArrow=none;html=1;rounded=0;startArrow=none;startFill=0;endFill=0;strokeWidth=4;fillColor=#a20025;strokeColor=#1C6EFF;jumpStyle=arc;" parent="1" edge="1">
          <mxGeometry width="50" height="50" relative="1" as="geometry">
            <mxPoint x="-568" y="25" as="sourcePoint" />
            <mxPoint x="-568" y="105" as="targetPoint" />
          </mxGeometry>
        </mxCell>
        <object label="マシン" id="ExSx5SIZApUU_Iw7rpWn-6">
          <mxCell style="" parent="0" />
        </object>
        <mxCell id="4jGIObLVKQul48obEb4T-24" value="" style="rounded=1;whiteSpace=wrap;html=1;fillColor=#dae8fc;strokeColor=#6c8ebf;" parent="ExSx5SIZApUU_Iw7rpWn-6" vertex="1">
          <mxGeometry x="-663" y="115" width="1240" height="460" as="geometry" />
        </mxCell>
        <mxCell id="4jGIObLVKQul48obEb4T-26" value="enp1s0" style="rounded=0;whiteSpace=wrap;html=1;fillColor=#e3c800;fontColor=#000000;strokeColor=#B09500;" parent="ExSx5SIZApUU_Iw7rpWn-6" vertex="1">
          <mxGeometry x="-610" y="105" width="80" height="20" as="geometry" />
        </mxCell>
        <mxCell id="4jGIObLVKQul48obEb4T-27" value="DHCP" style="text;html=1;align=center;verticalAlign=middle;resizable=0;points=[];autosize=1;strokeColor=none;fillColor=none;" parent="ExSx5SIZApUU_Iw7rpWn-6" vertex="1">
          <mxGeometry x="-645" y="75" width="60" height="30" as="geometry" />
        </mxCell>
        <mxCell id="21zLahzKs5m0MUraH8DA-1" value="&lt;font style=&quot;font-size: 17px;&quot;&gt;Single Controller Node&lt;/font&gt;" style="text;html=1;align=center;verticalAlign=middle;resizable=0;points=[];autosize=1;strokeColor=none;fillColor=none;" parent="ExSx5SIZApUU_Iw7rpWn-6" vertex="1">
          <mxGeometry x="350" y="530" width="190" height="30" as="geometry" />
        </mxCell>
        <mxCell id="21zLahzKs5m0MUraH8DA-2" value="kube-bridge" style="rounded=0;whiteSpace=wrap;html=1;fillColor=#B39D00;fontColor=#000000;strokeColor=#B09500;" parent="ExSx5SIZApUU_Iw7rpWn-6" vertex="1">
          <mxGeometry x="-123" y="145" width="150" height="40" as="geometry" />
        </mxCell>
        <mxCell id="21zLahzKs5m0MUraH8DA-6" value="veth2ff774ab" style="rounded=0;whiteSpace=wrap;html=1;fillColor=#e3c800;fontColor=#000000;strokeColor=#B09500;" parent="ExSx5SIZApUU_Iw7rpWn-6" vertex="1">
          <mxGeometry x="-506" y="155" width="110" height="20" as="geometry" />
        </mxCell>
        <mxCell id="kA4qiDeY3TN-oHJTK4xy-3" value="vethafa19b66" style="rounded=0;whiteSpace=wrap;html=1;fillColor=#e3c800;fontColor=#000000;strokeColor=#B09500;" parent="ExSx5SIZApUU_Iw7rpWn-6" vertex="1">
          <mxGeometry x="310" y="155" width="110" height="20" as="geometry" />
        </mxCell>
        <mxCell id="kA4qiDeY3TN-oHJTK4xy-8" value="" style="endArrow=none;html=1;rounded=0;startArrow=none;startFill=0;endFill=0;strokeWidth=4;fillColor=#d5e8d4;strokeColor=#82b366;jumpStyle=arc;entryX=0.5;entryY=0;entryDx=0;entryDy=0;exitX=0.5;exitY=1;exitDx=0;exitDy=0;" parent="ExSx5SIZApUU_Iw7rpWn-6" source="21zLahzKs5m0MUraH8DA-6" target="21zLahzKs5m0MUraH8DA-12" edge="1">
          <mxGeometry width="50" height="50" relative="1" as="geometry">
            <mxPoint x="-480" y="85" as="sourcePoint" />
            <mxPoint x="-480" y="165" as="targetPoint" />
          </mxGeometry>
        </mxCell>
        <mxCell id="kA4qiDeY3TN-oHJTK4xy-11" value="" style="endArrow=none;html=1;rounded=0;startArrow=none;startFill=0;endFill=0;strokeWidth=4;fillColor=#d5e8d4;strokeColor=#82b366;jumpStyle=arc;entryX=0.5;entryY=0;entryDx=0;entryDy=0;exitX=0.5;exitY=1;exitDx=0;exitDy=0;" parent="ExSx5SIZApUU_Iw7rpWn-6" source="kA4qiDeY3TN-oHJTK4xy-3" target="kA4qiDeY3TN-oHJTK4xy-7" edge="1">
          <mxGeometry width="50" height="50" relative="1" as="geometry">
            <mxPoint x="226" y="205" as="sourcePoint" />
            <mxPoint x="226" y="275" as="targetPoint" />
          </mxGeometry>
        </mxCell>
        <mxCell id="kA4qiDeY3TN-oHJTK4xy-12" value="" style="endArrow=none;html=1;rounded=0;startArrow=none;startFill=0;endFill=0;strokeWidth=4;fillColor=#d5e8d4;strokeColor=#82b366;jumpStyle=arc;entryX=1;entryY=0.5;entryDx=0;entryDy=0;exitX=0;exitY=0.5;exitDx=0;exitDy=0;" parent="ExSx5SIZApUU_Iw7rpWn-6" source="kA4qiDeY3TN-oHJTK4xy-3" target="21zLahzKs5m0MUraH8DA-2" edge="1">
          <mxGeometry width="50" height="50" relative="1" as="geometry">
            <mxPoint x="243" y="185" as="sourcePoint" />
            <mxPoint x="243" y="265" as="targetPoint" />
          </mxGeometry>
        </mxCell>
        <mxCell id="kA4qiDeY3TN-oHJTK4xy-13" value="" style="endArrow=none;html=1;rounded=0;startArrow=none;startFill=0;endFill=0;strokeWidth=4;fillColor=#d5e8d4;strokeColor=#82b366;jumpStyle=arc;entryX=1;entryY=0.5;entryDx=0;entryDy=0;exitX=0;exitY=0.5;exitDx=0;exitDy=0;" parent="ExSx5SIZApUU_Iw7rpWn-6" source="21zLahzKs5m0MUraH8DA-2" target="21zLahzKs5m0MUraH8DA-6" edge="1">
          <mxGeometry width="50" height="50" relative="1" as="geometry">
            <mxPoint x="188" y="175" as="sourcePoint" />
            <mxPoint x="42" y="175" as="targetPoint" />
          </mxGeometry>
        </mxCell>
        <mxCell id="kA4qiDeY3TN-oHJTK4xy-14" value="10.244.0.1" style="text;html=1;align=center;verticalAlign=middle;resizable=0;points=[];autosize=1;strokeColor=none;fillColor=none;" parent="ExSx5SIZApUU_Iw7rpWn-6" vertex="1">
          <mxGeometry x="22" y="130" width="80" height="30" as="geometry" />
        </mxCell>
        <mxCell id="0oZS6nrsNfXs3CfHlLKv-7" value="veth0dd6ea16" style="rounded=0;whiteSpace=wrap;html=1;fillColor=#e3c800;fontColor=#000000;strokeColor=#B09500;" vertex="1" parent="ExSx5SIZApUU_Iw7rpWn-6">
          <mxGeometry x="-103" y="223" width="110" height="20" as="geometry" />
        </mxCell>
        <mxCell id="0oZS6nrsNfXs3CfHlLKv-8" value="" style="endArrow=none;html=1;rounded=0;startArrow=none;startFill=0;endFill=0;strokeWidth=4;fillColor=#d5e8d4;strokeColor=#82b366;jumpStyle=arc;entryX=0.5;entryY=0;entryDx=0;entryDy=0;exitX=0.5;exitY=1;exitDx=0;exitDy=0;" edge="1" parent="ExSx5SIZApUU_Iw7rpWn-6" source="21zLahzKs5m0MUraH8DA-2" target="0oZS6nrsNfXs3CfHlLKv-7">
          <mxGeometry width="50" height="50" relative="1" as="geometry">
            <mxPoint x="-315" y="220" as="sourcePoint" />
            <mxPoint x="-315" y="300" as="targetPoint" />
          </mxGeometry>
        </mxCell>
        <mxCell id="0oZS6nrsNfXs3CfHlLKv-9" value="" style="endArrow=none;html=1;rounded=0;startArrow=none;startFill=0;endFill=0;strokeWidth=4;fillColor=#d5e8d4;strokeColor=#82b366;jumpStyle=arc;entryX=0.5;entryY=0;entryDx=0;entryDy=0;exitX=0.5;exitY=1;exitDx=0;exitDy=0;" edge="1" parent="ExSx5SIZApUU_Iw7rpWn-6" source="0oZS6nrsNfXs3CfHlLKv-7" target="0oZS6nrsNfXs3CfHlLKv-5">
          <mxGeometry width="50" height="50" relative="1" as="geometry">
            <mxPoint x="-48" y="263" as="sourcePoint" />
            <mxPoint x="145" y="293" as="targetPoint" />
          </mxGeometry>
        </mxCell>
        <object label="NW名前空間" id="21zLahzKs5m0MUraH8DA-9">
          <mxCell style="" parent="0" />
        </object>
        <mxCell id="0oZS6nrsNfXs3CfHlLKv-3" value="" style="rounded=1;whiteSpace=wrap;html=1;fillColor=#b8d2fa;strokeColor=#6c8ebf;align=center;horizontal=1;" vertex="1" parent="21zLahzKs5m0MUraH8DA-9">
          <mxGeometry x="-233" y="298" width="390" height="140" as="geometry" />
        </mxCell>
        <mxCell id="0oZS6nrsNfXs3CfHlLKv-4" value="" style="rounded=1;whiteSpace=wrap;html=1;fillColor=#b8d2fa;strokeColor=#6c8ebf;align=center;horizontal=1;" vertex="1" parent="21zLahzKs5m0MUraH8DA-9">
          <mxGeometry x="178" y="298" width="390" height="140" as="geometry" />
        </mxCell>
        <mxCell id="21zLahzKs5m0MUraH8DA-10" value="" style="rounded=1;whiteSpace=wrap;html=1;fillColor=#b8d2fa;strokeColor=#6c8ebf;align=center;horizontal=1;" parent="21zLahzKs5m0MUraH8DA-9" vertex="1">
          <mxGeometry x="-650" y="298" width="390" height="140" as="geometry" />
        </mxCell>
        <mxCell id="21zLahzKs5m0MUraH8DA-11" value="&lt;font style=&quot;font-size: 17px;&quot;&gt;cni-d954e5c5-f69e-80bd-ca8a-1c9123031c00&lt;/font&gt;" style="text;html=1;align=center;verticalAlign=middle;resizable=0;points=[];autosize=1;strokeColor=none;fillColor=none;" parent="21zLahzKs5m0MUraH8DA-9" vertex="1">
          <mxGeometry x="-640" y="398" width="370" height="30" as="geometry" />
        </mxCell>
        <mxCell id="21zLahzKs5m0MUraH8DA-14" value="10.244.0.4" style="text;html=1;align=center;verticalAlign=middle;resizable=0;points=[];autosize=1;strokeColor=none;fillColor=none;" parent="21zLahzKs5m0MUraH8DA-9" vertex="1">
          <mxGeometry x="-530" y="268" width="80" height="30" as="geometry" />
        </mxCell>
        <mxCell id="21zLahzKs5m0MUraH8DA-12" value="eth0" style="rounded=0;whiteSpace=wrap;html=1;fillColor=#e3c800;fontColor=#000000;strokeColor=#B09500;" parent="21zLahzKs5m0MUraH8DA-9" vertex="1">
          <mxGeometry x="-506" y="298" width="110" height="20" as="geometry" />
        </mxCell>
        <mxCell id="kA4qiDeY3TN-oHJTK4xy-5" value="&lt;font style=&quot;font-size: 17px;&quot;&gt;cni-7abaad58-8ee0-6e49-8a25-c72c6db0f2d1&lt;/font&gt;" style="text;html=1;align=center;verticalAlign=middle;resizable=0;points=[];autosize=1;strokeColor=none;fillColor=none;" parent="21zLahzKs5m0MUraH8DA-9" vertex="1">
          <mxGeometry x="191" y="398" width="370" height="30" as="geometry" />
        </mxCell>
        <mxCell id="kA4qiDeY3TN-oHJTK4xy-6" value="10.244.0.3" style="text;html=1;align=center;verticalAlign=middle;resizable=0;points=[];autosize=1;strokeColor=none;fillColor=none;" parent="21zLahzKs5m0MUraH8DA-9" vertex="1">
          <mxGeometry x="361" y="268" width="80" height="30" as="geometry" />
        </mxCell>
        <mxCell id="kA4qiDeY3TN-oHJTK4xy-7" value="eth0" style="rounded=0;whiteSpace=wrap;html=1;fillColor=#e3c800;fontColor=#000000;strokeColor=#B09500;" parent="21zLahzKs5m0MUraH8DA-9" vertex="1">
          <mxGeometry x="310" y="298" width="110" height="20" as="geometry" />
        </mxCell>
        <mxCell id="0oZS6nrsNfXs3CfHlLKv-5" value="eth0" style="rounded=0;whiteSpace=wrap;html=1;fillColor=#e3c800;fontColor=#000000;strokeColor=#B09500;" vertex="1" parent="21zLahzKs5m0MUraH8DA-9">
          <mxGeometry x="-103" y="298" width="110" height="20" as="geometry" />
        </mxCell>
        <mxCell id="0oZS6nrsNfXs3CfHlLKv-6" value="10.244.0.5" style="text;html=1;align=center;verticalAlign=middle;resizable=0;points=[];autosize=1;strokeColor=none;fillColor=none;" vertex="1" parent="21zLahzKs5m0MUraH8DA-9">
          <mxGeometry x="-45" y="268" width="80" height="30" as="geometry" />
        </mxCell>
        <mxCell id="0oZS6nrsNfXs3CfHlLKv-10" value="&lt;font style=&quot;font-size: 17px;&quot;&gt;cni-530e938a-559b-d548-18d2-4a6989c466a8&lt;/font&gt;" style="text;html=1;align=center;verticalAlign=middle;resizable=0;points=[];autosize=1;strokeColor=none;fillColor=none;" vertex="1" parent="21zLahzKs5m0MUraH8DA-9">
          <mxGeometry x="-228" y="398" width="380" height="30" as="geometry" />
        </mxCell>
        <mxCell id="kA4qiDeY3TN-oHJTK4xy-15" value="コンテナ" style="" parent="0" />
        <mxCell id="kA4qiDeY3TN-oHJTK4xy-17" value="kube-router-gm96c" style="aspect=fixed;sketch=0;html=1;dashed=0;whitespace=wrap;verticalLabelPosition=bottom;verticalAlign=top;fillColor=#2875E2;strokeColor=#ffffff;points=[[0.005,0.63,0],[0.1,0.2,0],[0.9,0.2,0],[0.5,0,0],[0.995,0.63,0],[0.72,0.99,0],[0.5,1,0],[0.28,0.99,0]];shape=mxgraph.kubernetes.icon2;prIcon=pod" parent="kA4qiDeY3TN-oHJTK4xy-15" vertex="1">
          <mxGeometry x="150" y="462" width="50" height="48" as="geometry" />
        </mxCell>
        <mxCell id="kA4qiDeY3TN-oHJTK4xy-18" value="konnectivity-agent-549w2" style="aspect=fixed;sketch=0;html=1;dashed=0;whitespace=wrap;verticalLabelPosition=bottom;verticalAlign=top;fillColor=#2875E2;strokeColor=#ffffff;points=[[0.005,0.63,0],[0.1,0.2,0],[0.9,0.2,0],[0.5,0,0],[0.995,0.63,0],[0.72,0.99,0],[0.5,1,0],[0.28,0.99,0]];shape=mxgraph.kubernetes.icon2;prIcon=pod" parent="kA4qiDeY3TN-oHJTK4xy-15" vertex="1">
          <mxGeometry x="-480" y="323" width="50" height="48" as="geometry" />
        </mxCell>
        <mxCell id="kA4qiDeY3TN-oHJTK4xy-20" value="coredns-7656c59669-8wwxq" style="aspect=fixed;sketch=0;html=1;dashed=0;whitespace=wrap;verticalLabelPosition=bottom;verticalAlign=top;fillColor=#2875E2;strokeColor=#ffffff;points=[[0.005,0.63,0],[0.1,0.2,0],[0.9,0.2,0],[0.5,0,0],[0.995,0.63,0],[0.72,0.99,0],[0.5,1,0],[0.28,0.99,0]];shape=mxgraph.kubernetes.icon2;prIcon=pod" parent="kA4qiDeY3TN-oHJTK4xy-15" vertex="1">
          <mxGeometry x="340" y="323" width="50" height="48" as="geometry" />
        </mxCell>
        <mxCell id="kA4qiDeY3TN-oHJTK4xy-21" value="kube-proxy-lf7sz" style="aspect=fixed;sketch=0;html=1;dashed=0;whitespace=wrap;verticalLabelPosition=bottom;verticalAlign=top;fillColor=#2875E2;strokeColor=#ffffff;points=[[0.005,0.63,0],[0.1,0.2,0],[0.9,0.2,0],[0.5,0,0],[0.995,0.63,0],[0.72,0.99,0],[0.5,1,0],[0.28,0.99,0]];shape=mxgraph.kubernetes.icon2;prIcon=pod" parent="kA4qiDeY3TN-oHJTK4xy-15" vertex="1">
          <mxGeometry x="-270" y="462" width="50" height="48" as="geometry" />
        </mxCell>
        <mxCell id="0oZS6nrsNfXs3CfHlLKv-11" value="metrics-server-67bc669cf4-m2xzk" style="aspect=fixed;sketch=0;html=1;dashed=0;whitespace=wrap;verticalLabelPosition=bottom;verticalAlign=top;fillColor=#2875E2;strokeColor=#ffffff;points=[[0.005,0.63,0],[0.1,0.2,0],[0.9,0.2,0],[0.5,0,0],[0.995,0.63,0],[0.72,0.99,0],[0.5,1,0],[0.28,0.99,0]];shape=mxgraph.kubernetes.icon2;prIcon=pod" vertex="1" parent="kA4qiDeY3TN-oHJTK4xy-15">
          <mxGeometry x="-70" y="323" width="50" height="48" as="geometry" />
        </mxCell>
      </root>
    </mxGraphModel>
  </diagram>
</mxfile>
